<?xml version="1.0" standalone="no"?>
<!DOCTYPE svg PUBLIC "-//W3C//DTD SVG 20010904//EN"
 "http://www.w3.org/TR/2001/REC-SVG-20010904/DTD/svg10.dtd">
<svg version="1.0" xmlns="http://www.w3.org/2000/svg"
 width="376.000000pt" height="372.000000pt" viewBox="0 0 376.000000 372.000000"
 preserveAspectRatio="xMidYMid meet">
<metadata>
Created by potrace 1.16, written by Peter Selinger 2001-2019
</metadata>
<g transform="translate(0.000000,372.000000) scale(0.100000,-0.100000)"
fill="#000000" stroke="none">
<path d="M2171 3499 c14 -9 -19 -21 -34 -12 -7 3 -9 3 -5 -1 4 -5 -3 -18 -16
-31 -26 -26 -85 -100 -103 -130 -7 -11 -22 -36 -33 -55 -11 -19 -24 -42 -29
-50 -5 -8 -17 -33 -26 -55 -10 -22 -22 -48 -27 -58 -22 -45 -89 -272 -123
-417 -15 -63 -33 -137 -41 -164 -8 -26 -14 -58 -14 -71 0 -12 -4 -35 -9 -51
-5 -16 -16 -65 -25 -109 -9 -44 -23 -114 -31 -155 -8 -41 -17 -84 -19 -95 -4
-28 -17 -77 -23 -95 -4 -8 -5 -23 -4 -32 1 -10 -3 -18 -8 -18 -6 0 -10 -3 -10
-7 5 -32 -22 -45 -113 -58 -72 -9 -176 -67 -245 -134 -40 -38 -59 -52 -55 -38
3 14 1 18 -6 13 -7 -4 -15 0 -18 8 -3 9 -22 25 -41 37 -42 26 -113 29 -168 5
-22 -9 -42 -16 -45 -16 -2 1 -8 -8 -12 -20 -4 -12 -12 -19 -17 -16 -5 3 -11
-4 -14 -15 -4 -14 -10 -18 -19 -13 -7 4 -10 4 -6 -1 11 -12 -42 -106 -55 -98
-18 11 -236 19 -230 9 4 -5 -7 -6 -23 -2 -23 5 -26 4 -14 -5 12 -8 7 -9 -20
-5 -22 4 -30 3 -21 -3 11 -7 9 -10 -8 -16 -38 -12 -22 -25 24 -18 32 4 45 2
45 -7 0 -8 12 -10 38 -6 20 3 55 1 77 -3 l40 -9 -52 -1 c-28 0 -64 -6 -79 -12
-16 -5 -48 -12 -73 -15 -30 -3 -49 -11 -59 -25 -8 -11 -20 -18 -29 -15 -8 3
-12 2 -9 -3 3 -5 -1 -12 -10 -15 -9 -4 -13 -2 -8 5 4 7 1 10 -7 7 -8 -3 -15
-10 -15 -16 -3 -25 -5 -27 -12 -15 -5 8 -11 3 -19 -13 -11 -23 -10 -24 10 -17
12 4 32 7 44 6 13 0 21 3 18 7 -7 11 32 23 45 15 5 -3 10 -2 10 3 0 5 10 12
23 15 95 23 166 37 215 43 54 6 58 4 69 -17 7 -13 17 -58 23 -99 12 -76 51
-180 76 -201 8 -6 12 -14 9 -18 -2 -4 20 -20 49 -36 41 -22 58 -26 82 -20 16
5 34 7 39 6 6 -2 7 1 3 5 -8 7 29 44 44 44 5 0 6 5 3 10 -3 6 1 10 10 10 9 0
14 4 11 8 -2 4 11 6 31 4 33 -4 35 -6 30 -36 -5 -34 19 -86 41 -86 7 0 10 -5
7 -10 -4 -6 -2 -9 3 -8 6 2 40 -10 76 -27 64 -29 90 -59 91 -105 1 -8 6 -14
12 -13 6 1 19 -7 28 -17 18 -20 59 -25 103 -14 29 8 28 24 -2 24 -14 0 -28 5
-32 12 -4 7 -3 8 4 4 7 -4 6 4 -3 20 -7 14 -24 32 -37 38 -19 10 -24 21 -26
66 -2 39 -10 62 -25 80 -19 21 -19 22 -2 8 14 -12 25 -14 35 -8 13 8 13 10 1
10 -8 0 -12 2 -10 5 3 2 15 2 28 -2 12 -3 18 -9 13 -12 -6 -3 19 -7 56 -8 44
-1 61 1 52 7 -13 8 -13 10 0 10 9 0 22 -6 29 -12 11 -11 13 -10 8 4 -4 10 -2
18 5 18 8 0 9 -21 3 -72 -4 -40 -7 -84 -7 -97 0 -24 40 -66 73 -76 11 -4 17
-11 14 -16 -3 -5 1 -6 9 -3 9 3 26 -5 41 -20 14 -14 30 -26 35 -26 12 0 41
-60 34 -71 -3 -5 2 -9 10 -9 8 0 19 -6 23 -13 9 -16 73 -40 73 -28 0 5 9 11
20 14 23 6 27 27 5 27 -8 0 -15 5 -15 11 0 5 -4 8 -9 4 -5 -3 -13 0 -17 6 -4
8 -3 9 4 5 7 -4 12 -2 12 3 0 6 -4 11 -10 11 -5 0 -10 6 -10 14 0 8 -8 16 -17
18 -14 2 -17 13 -16 48 1 45 1 45 -7 10 -8 -31 -8 -29 -6 18 1 28 -1 52 -6 52
-5 0 -6 5 -3 10 3 6 0 10 -7 10 -7 0 -25 11 -40 24 -14 14 -29 22 -32 19 -7
-7 -9 15 -7 77 1 25 -2 59 -8 77 -8 27 -7 31 7 26 12 -5 14 -2 9 11 -6 14 -3
17 8 12 9 -3 14 -2 11 3 -3 5 9 20 27 34 31 24 33 24 64 7 18 -9 30 -20 27
-23 -3 -3 3 -8 13 -11 10 -3 36 -27 58 -53 77 -91 120 -130 158 -142 20 -7 35
-17 32 -22 -4 -5 -1 -9 4 -9 6 0 11 -11 11 -25 0 -18 4 -23 15 -19 12 5 15 -4
17 -42 1 -27 1 -59 0 -72 0 -12 3 -20 7 -18 10 7 32 -64 24 -78 -3 -6 -3 -8 2
-4 4 4 17 -9 27 -30 11 -20 56 -71 100 -112 47 -45 80 -84 81 -97 0 -12 5 -19
11 -16 6 4 6 -1 2 -13 -4 -10 -4 -15 0 -11 7 7 34 -36 39 -63 1 -8 8 -14 14
-12 6 1 11 -3 11 -9 0 -5 13 -15 30 -20 16 -6 27 -15 24 -20 -3 -5 2 -6 10 -3
33 13 125 -74 126 -118 0 -30 20 -39 21 -10 0 15 2 14 10 -3 6 -15 7 -11 3 15
-4 19 -8 48 -9 63 -1 16 -7 33 -14 40 -6 6 -11 16 -11 23 0 6 -7 15 -16 18 -8
3 -12 11 -8 17 4 7 3 9 -4 5 -15 -9 -27 14 -23 46 1 14 -3 29 -9 33 -5 3 -7
11 -4 17 4 6 2 8 -4 4 -6 -3 -20 7 -32 24 -12 17 -25 28 -30 25 -7 -5 -74 45
-110 83 -10 10 -14 29 -11 55 2 29 -4 56 -25 98 -15 33 -31 59 -36 59 -4 0
-15 17 -24 38 -25 60 -53 152 -43 146 5 -3 9 7 9 22 0 15 3 25 6 21 4 -3 26
14 49 38 24 24 46 41 49 38 3 -4 6 -1 6 6 0 7 13 29 29 49 37 46 82 138 105
215 15 47 17 79 12 170 -3 62 -7 124 -9 139 -4 27 -24 59 -35 55 -14 -4 -72
26 -66 34 3 5 -2 6 -10 3 -9 -3 -16 -1 -16 4 0 6 -12 9 -27 8 -28 -3 -28 -5
-35 -90 -11 -129 -75 -313 -127 -365 -11 -11 -20 -24 -20 -27 3 -14 -66 -94
-80 -94 -17 1 -61 62 -61 84 0 7 -14 22 -31 35 -17 13 -28 26 -24 29 4 4 13
-2 21 -12 14 -19 14 -19 14 2 0 12 18 38 41 61 23 22 38 44 35 49 -9 15 15 63
27 55 6 -3 7 -1 3 6 -9 14 2 53 13 46 5 -2 6 7 3 20 -2 14 0 25 4 25 5 0 10
43 12 95 3 88 2 95 -16 95 -22 0 -72 -15 -119 -36 -17 -8 -39 -11 -50 -8 -14
4 -15 4 -4 -4 18 -13 -27 -23 -93 -21 l-49 2 58 29 c32 17 68 31 81 32 13 2
27 6 32 11 4 4 1 5 -7 0 -9 -5 -12 -4 -7 3 4 6 13 9 20 6 7 -3 16 2 20 11 3
10 12 15 21 11 8 -3 15 -1 15 5 0 5 12 15 28 22 15 6 36 20 46 29 18 16 25 19
42 17 3 0 14 10 25 22 10 12 19 19 19 14 0 -4 9 3 20 16 10 13 19 20 20 14 0
-5 7 1 16 13 8 12 21 22 27 22 12 0 48 35 42 42 -1 1 7 12 18 23 11 11 16 14
12 6 -5 -9 -4 -12 3 -7 7 4 12 14 12 22 0 8 4 13 9 10 9 -6 26 22 22 37 -1 4
5 18 14 30 8 12 15 17 15 12 0 -6 5 -3 10 5 5 8 10 20 10 25 0 6 -5 3 -10 -5
-7 -10 -10 -11 -10 -2 0 7 6 15 14 18 8 3 16 14 19 25 3 10 1 17 -3 14 -5 -3
-5 9 0 27 10 39 18 201 9 186 -4 -5 -9 6 -13 26 -4 20 -4 41 0 48 4 7 3 8 -4
4 -18 -11 -26 39 -11 66 7 12 14 30 15 38 2 8 10 20 19 26 8 6 13 18 9 27 -3
8 -1 18 4 21 6 3 18 31 27 61 10 31 22 52 28 48 6 -3 7 -1 3 6 -4 6 -3 26 3
44 53 162 66 236 51 283 -17 51 -51 70 -100 55 -22 -6 -43 -11 -46 -11 -4 1
-10 -2 -13 -7 -3 -5 -35 -28 -71 -53 -36 -24 -94 -77 -130 -116 -36 -40 -68
-73 -71 -73 -4 -1 -2 18 3 42 6 23 11 123 12 222 1 151 -2 187 -17 227 -10 25
-25 49 -33 52 -8 3 -13 9 -10 14 2 4 -11 8 -29 8 -19 0 -30 -3 -24 -7z m13
-685 c-9 -13 -20 -24 -23 -24 -4 0 -8 -6 -8 -13 0 -17 -33 -67 -45 -67 -5 0
-6 -4 -3 -10 3 -5 1 -10 -6 -10 -7 0 -9 -3 -6 -7 4 -3 -2 -16 -12 -27 -11 -12
-20 -25 -20 -29 0 -15 -85 -167 -93 -167 -4 0 -8 -7 -8 -15 0 -17 -108 -227
-122 -236 -5 -3 -9 -9 -9 -13 3 -22 -1 -35 -16 -52 -10 -11 -19 -26 -21 -34
-2 -8 -8 -17 -13 -18 -5 -2 -7 -8 -3 -13 3 -5 0 -9 -6 -9 -6 0 -9 -3 -7 -7 3
-5 -1 -14 -9 -21 -18 -17 -18 -10 3 33 9 19 21 35 25 35 5 0 7 4 3 9 -3 5 0
15 7 23 7 7 14 20 16 28 7 33 189 381 205 391 5 3 8 10 8 15 -1 5 4 16 11 25
7 8 14 20 15 25 3 19 106 179 124 195 10 9 15 20 11 24 -4 5 -1 5 5 1 10 -5 9
-13 -3 -32z m-1125 -1350 c14 -32 14 -75 -1 -111 -6 -15 -12 -32 -12 -37 -1
-5 -10 -12 -21 -17 -11 -4 -15 -8 -10 -8 6 -1 3 -5 -4 -10 -22 -14 -48 5 -56
40 -9 41 2 112 21 135 9 11 12 12 8 4 -7 -13 -6 -13 10 -1 12 10 14 16 5 22
-8 5 -6 8 7 11 28 6 40 0 53 -28z"/>
<path d="M2775 1463 c-4 -32 -9 -76 -10 -98 -5 -74 -53 -190 -120 -295 -43
-67 -125 -161 -125 -144 0 5 -5 1 -11 -9 -12 -21 -4 -37 21 -37 30 0 154 -169
136 -187 -8 -9 47 -54 96 -79 63 -32 120 -83 114 -101 -3 -8 -2 -11 3 -8 5 3
11 -5 13 -17 2 -13 10 -24 18 -26 12 -2 15 9 15 53 0 30 -2 50 -4 45 -1 -6
-13 8 -24 32 -12 24 -29 50 -39 58 -10 9 -18 33 -20 60 -2 25 -8 45 -14 45 -5
0 -23 10 -39 23 -17 13 -24 21 -17 17 8 -4 12 2 12 20 0 15 4 24 10 20 6 -3
10 0 10 8 0 8 10 22 22 33 22 19 23 19 8 -1 -14 -20 -14 -20 7 -2 12 11 19 25
17 32 -3 7 3 18 14 24 11 6 23 24 27 41 4 18 11 27 17 24 6 -4 8 -2 4 4 -3 6
5 37 20 69 21 48 27 77 30 165 3 75 1 109 -7 114 -8 5 -9 3 -4 -7 7 -12 5 -12
-6 -1 -8 7 -14 20 -14 30 0 9 -6 16 -13 14 -8 -1 -11 1 -9 5 6 9 -17 43 -30
46 -4 1 -7 5 -5 10 1 4 -1 6 -5 5 -5 -2 -9 1 -10 5 -4 13 -61 67 -71 67 -5 0
-13 -26 -17 -57z"/>
<path d="M3093 1033 c-29 -80 -103 -215 -103 -188 0 19 -34 -39 -36 -62 -2
-17 2 -23 17 -23 13 0 18 -4 13 -12 -4 -6 -3 -8 3 -5 12 7 100 -15 144 -37 39
-19 40 -19 37 -3 -2 6 2 11 9 10 9 -2 11 20 9 85 -4 91 -5 99 -25 146 -12 29
-19 59 -20 86 -1 13 -2 13 -11 0 -8 -13 -10 -12 -10 3 0 9 -5 17 -10 17 -6 0
-13 -8 -17 -17z"/>
</g>
</svg>
