<?xml version="1.0" standalone="no"?>
<!DOCTYPE svg PUBLIC "-//W3C//DTD SVG 20010904//EN"
 "http://www.w3.org/TR/2001/REC-SVG-20010904/DTD/svg10.dtd">
<svg version="1.0" xmlns="http://www.w3.org/2000/svg"
 width="407.000000pt" height="400.000000pt" viewBox="0 0 407.000000 400.000000"
 preserveAspectRatio="xMidYMid meet">
<metadata>
Created by potrace 1.16, written by Peter Selinger 2001-2019
</metadata>
<g transform="translate(0.000000,400.000000) scale(0.100000,-0.100000)"
fill="#000000" stroke="none">
<path d="M3602 3464 c-29 -14 -77 -49 -107 -76 -47 -42 -64 -52 -122 -64 -82
-17 -243 -69 -297 -96 -61 -31 -131 -103 -156 -159 -21 -49 -23 -51 -53 -45
-67 14 -223 18 -264 7 -64 -17 -134 -70 -178 -135 l-40 -59 -90 -2 c-140 -4
-265 -51 -390 -145 -36 -27 -72 -50 -80 -50 -24 0 -139 56 -236 115 -142 86
-494 258 -622 303 -205 73 -325 95 -549 100 -109 2 -213 1 -233 -2 -45 -9 -52
-34 -30 -118 19 -77 47 -136 91 -194 38 -50 40 -54 19 -54 -56 0 71 -223 177
-311 103 -84 232 -155 331 -180 26 -6 47 -13 47 -14 0 -2 -16 -26 -35 -54 -42
-64 -51 -106 -32 -153 58 -139 312 -205 514 -134 44 15 151 69 233 117 l55 32
-46 -54 c-145 -169 -213 -330 -226 -529 -16 -259 70 -518 244 -735 232 -289
520 -446 941 -511 75 -11 116 -14 123 -7 7 7 1 30 -16 69 -60 133 -71 277 -29
376 24 57 26 71 22 178 -3 109 -5 119 -41 194 -31 64 -37 89 -37 141 0 37 -10
98 -25 149 -45 154 -89 218 -173 251 -37 15 -62 39 -62 60 0 11 56 -8 121 -42
36 -19 84 -37 107 -40 94 -13 183 24 237 97 22 30 33 36 74 40 56 6 56 -2 2
-30 -27 -13 -48 -36 -71 -77 -18 -32 -62 -88 -96 -124 -35 -36 -64 -69 -64
-74 0 -17 93 4 164 38 102 48 196 146 196 204 0 12 16 54 35 94 26 55 35 87
35 126 0 61 -11 72 -45 45 -33 -26 -117 -46 -160 -38 -35 7 -75 46 -75 74 0
13 86 102 99 102 3 0 28 -11 55 -25 27 -14 62 -25 78 -25 17 0 35 -9 46 -22 9
-12 31 -36 48 -53 30 -30 31 -32 13 -43 -10 -7 -19 -21 -19 -32 0 -31 -56
-186 -90 -248 -16 -30 -28 -57 -26 -60 20 -20 147 95 210 189 44 67 66 134 66
201 0 86 -12 100 -163 182 -38 21 -67 40 -64 42 9 9 143 -28 172 -48 45 -30
84 -90 94 -143 5 -25 12 -49 16 -53 10 -10 51 44 79 103 40 83 51 163 37 260
-9 60 -10 93 -2 121 56 201 -94 495 -282 553 -35 10 -63 25 -65 33 -2 8 16 44
40 79 57 85 115 115 245 127 95 10 157 32 203 75 39 37 61 45 101 40 49 -7
134 22 159 54 26 34 27 89 1 103 -33 17 -85 11 -139 -16z m-3187 -395 c216
-18 445 -77 712 -181 l102 -40 57 -102 c32 -55 63 -110 71 -122 13 -20 7 -19
-116 12 -131 34 -322 64 -526 83 -117 10 -253 48 -295 80 -43 34 -15 34 82 0
51 -17 100 -34 108 -36 8 -3 -21 16 -65 41 -80 47 -182 137 -212 188 -13 22
-22 26 -44 21 -22 -4 -31 0 -45 22 -15 23 -15 28 -3 36 18 11 28 11 174 -2z
m2357 -140 c50 -13 131 -69 211 -147 37 -37 67 -64 67 -62 0 3 -11 41 -25 84
-14 44 -23 82 -20 84 8 9 76 -50 117 -101 99 -125 168 -356 168 -568 l0 -46
-39 37 c-22 21 -60 46 -84 55 -33 12 -49 26 -58 47 -12 29 -13 29 -20 10 -27
-71 -192 -9 -318 119 -29 30 -73 89 -98 131 -25 43 -49 81 -55 84 -18 11 2
-77 32 -144 68 -148 222 -251 412 -277 26 -3 51 -11 54 -17 5 -8 -14 -9 -65
-4 -149 15 -260 66 -361 166 -62 62 -129 158 -145 208 -7 23 -25 30 -25 10 -1
-7 -12 12 -25 42 -34 76 -34 158 0 215 50 87 139 111 277 74z m-1252 -248 c40
-26 553 -270 608 -290 97 -36 85 -46 -96 -80 -62 -12 -163 -37 -225 -57 -101
-33 -410 -160 -447 -185 -34 -22 -117 -57 -153 -63 -37 -7 -38 -7 -31 21 27
116 99 163 349 233 127 36 89 38 -64 4 -81 -18 -132 -25 -171 -21 -65 6 -176
45 -163 58 5 5 51 18 103 30 81 18 140 22 400 28 l305 6 -130 15 c-79 9 -220
15 -362 15 -127 0 -229 3 -227 7 2 4 29 16 60 27 41 16 78 21 151 21 53 0 94
3 90 6 -3 4 -43 10 -87 15 -61 6 -93 15 -128 36 -26 15 -59 33 -73 39 -24 11
-63 53 -56 61 5 4 210 -50 342 -91 66 -20 140 -39 165 -42 35 -4 16 6 -88 45
-73 27 -147 59 -165 70 -27 16 -110 142 -136 204 -3 7 185 -85 229 -112z m861
48 c5 -7 14 -32 20 -54 6 -22 33 -89 61 -148 34 -74 55 -135 65 -195 14 -80
14 -92 -1 -142 -9 -30 -23 -64 -31 -74 -14 -19 -16 -18 -56 10 l-42 29 -16
-25 c-31 -47 -64 -81 -91 -95 -27 -14 -29 -13 -71 28 -24 23 -58 60 -75 82
l-31 40 -70 -23 c-38 -12 -73 -22 -76 -22 -4 0 5 18 20 41 16 24 45 50 72 64
61 30 192 71 278 86 l68 12 -66 31 c-36 17 -136 62 -222 101 -86 38 -157 72
-157 76 0 13 123 102 178 129 55 28 176 55 193 44 5 -3 9 -1 9 5 0 5 -21 12
-47 14 -32 3 -27 4 15 3 43 -2 66 -7 73 -17z m-1602 -60 c117 -9 351 -43 355
-51 36 -65 62 -90 116 -115 33 -15 60 -31 60 -35 0 -3 -13 -9 -29 -13 -16 -3
-55 -22 -86 -41 -35 -21 -70 -34 -91 -34 -18 0 -67 -7 -108 -16 -74 -17 -77
-16 -143 6 -106 35 -245 116 -326 190 -39 37 -87 75 -104 84 -33 17 -39 26
-26 40 8 8 173 1 382 -15z m383 -409 c34 -16 73 -30 86 -30 12 0 22 -4 22 -10
0 -5 -6 -10 -14 -10 -31 0 -104 -80 -132 -146 l-29 -66 -59 6 c-67 7 -171 50
-192 80 -24 34 -17 66 22 103 55 51 154 101 206 102 14 1 55 -12 90 -29z m562
-265 c28 -25 80 -67 116 -94 47 -34 64 -53 62 -67 -7 -50 -4 -122 7 -143 7
-12 11 -25 8 -27 -3 -3 -56 2 -118 12 -80 11 -154 15 -246 12 -73 -3 -133 -1
-133 4 0 18 60 139 91 185 38 56 138 163 152 163 5 0 32 -20 61 -45z m944
-210 c34 -20 38 -30 22 -55 -6 -10 -25 -14 -67 -12 -171 7 -232 89 -140 189
l20 23 66 -63 c36 -35 81 -72 99 -82z m-1202 -171 c-16 -41 -28 -167 -23 -236
4 -43 16 -109 27 -147 l22 -70 66 46 c37 25 68 47 70 48 2 2 -3 14 -12 27 -9
13 -19 45 -22 70 -6 45 -6 47 32 72 100 66 280 94 399 61 62 -16 67 -20 105
-77 22 -33 40 -61 40 -63 0 -1 -57 -5 -127 -8 -223 -10 -349 -63 -496 -208
l-89 -87 -14 33 c-46 111 -59 187 -59 353 0 160 1 164 24 183 29 24 66 26 57
3z m816 -383 c-3 -34 16 -90 44 -128 13 -17 24 -34 24 -37 0 -3 -23 -6 -52 -6
-82 0 -177 -20 -261 -56 -122 -53 -186 -109 -272 -239 l-43 -66 -47 53 c-81
89 -137 181 -143 234 -6 55 7 54 38 -4 11 -20 33 -53 50 -72 l30 -34 30 34
c23 26 30 30 26 15 -2 -11 -7 -32 -10 -47 -4 -16 -2 -28 3 -28 17 0 33 30 28
51 -4 17 -3 18 9 8 21 -18 30 -2 11 19 -19 21 -21 31 -7 52 8 12 13 11 34 -9
l24 -23 -4 43 c-5 52 8 68 116 144 137 96 211 125 310 122 62 -2 65 -3 62 -26z
m64 -283 c15 -24 35 -61 46 -84 17 -39 58 -298 58 -367 l0 -31 -42 40 c-24 23
-68 57 -99 77 -74 48 -136 113 -150 155 -29 86 5 190 75 233 52 32 82 25 112
-23z"/>
<path d="M2689 2817 c-41 -31 -51 -102 -24 -176 22 -62 113 -189 167 -232 94
-74 191 -90 217 -35 28 59 -27 206 -121 322 -90 112 -187 161 -239 121z"/>
</g>
</svg>
