<?xml version="1.0" standalone="no"?>
<!DOCTYPE svg PUBLIC "-//W3C//DTD SVG 20010904//EN"
 "http://www.w3.org/TR/2001/REC-SVG-20010904/DTD/svg10.dtd">
<svg version="1.0" xmlns="http://www.w3.org/2000/svg"
 width="178.000000pt" height="195.000000pt" viewBox="0 0 178.000000 195.000000"
 preserveAspectRatio="xMidYMid meet">

<g transform="translate(0.000000,195.000000) scale(0.100000,-0.100000)"
fill="#000000" stroke="none">
<path d="M853 1828 c-6 -7 -13 -25 -17 -40 -3 -15 -34 -68 -69 -118 -113 -166
-122 -185 -122 -270 0 -62 5 -85 29 -133 28 -57 100 -127 146 -142 19 -6 20
-15 20 -251 0 -134 -2 -244 -4 -244 -2 0 -14 17 -27 38 -17 28 -22 49 -20 88
4 71 -16 127 -63 181 -56 64 -102 83 -204 83 -91 0 -165 15 -183 36 -6 8 -20
14 -30 14 -42 0 -11 -159 51 -267 66 -114 184 -162 345 -139 l50 7 32 -53 c43
-72 49 -88 29 -88 -27 0 -108 -31 -147 -57 -21 -14 -68 -32 -104 -39 -121 -25
-179 -68 -290 -211 -30 -40 -45 -68 -41 -78 10 -27 25 -14 105 85 86 105 142
143 237 161 32 6 86 26 119 44 114 64 209 66 325 6 30 -15 83 -33 118 -39 119
-21 193 -78 269 -209 37 -62 58 -77 69 -48 8 20 -74 150 -128 202 -50 49 -134
90 -204 100 -27 3 -77 21 -110 38 -34 18 -80 36 -102 40 l-40 6 10 37 c5 20
28 75 50 120 38 80 41 83 66 77 102 -28 238 -19 318 20 131 64 244 262 244
426 0 52 -2 59 -20 59 -11 0 -20 -5 -20 -11 0 -5 -21 -19 -46 -30 -37 -17 -69
-21 -177 -22 -122 -2 -136 -4 -189 -30 -65 -32 -121 -89 -152 -156 -16 -36
-21 -66 -21 -136 -1 -89 -10 -120 -54 -185 -8 -10 -11 51 -11 201 l0 216 40
18 c50 23 116 92 141 151 24 52 27 143 9 200 -7 21 -40 77 -73 124 -63 88
-109 169 -119 208 -7 25 -21 28 -35 10z m78 -186 c109 -159 114 -169 114 -242
0 -51 -6 -77 -26 -115 -23 -45 -96 -115 -120 -115 -5 0 -9 69 -9 159 0 161 -5
186 -35 161 -12 -10 -15 -44 -15 -166 l0 -155 -27 15 c-40 21 -90 75 -107 118
-9 21 -16 65 -16 98 0 71 16 107 91 206 28 38 58 83 67 101 9 18 17 32 18 30
1 -1 30 -44 65 -95z m598 -494 c-46 -243 -209 -380 -421 -354 -89 11 -91 19
-23 82 61 57 190 128 251 140 38 7 54 28 36 46 -8 8 -30 5 -79 -11 -91 -30
-162 -72 -234 -138 l-59 -55 0 54 c0 102 70 198 170 233 27 10 83 15 154 16
63 0 128 6 151 14 62 20 63 20 54 -27z m-1050 -169 c48 0 103 -4 123 -10 74
-19 138 -101 138 -174 l0 -37 -46 41 c-52 46 -147 96 -163 86 -24 -14 -8 -35
47 -65 70 -37 140 -95 129 -107 -5 -4 -43 -8 -85 -7 -87 0 -135 20 -189 76
-36 37 -81 129 -90 183 -6 36 -6 36 23 25 15 -6 66 -11 113 -11z"/>
</g>
</svg>
